<svg width="45" height="53" viewBox="0 0 45 53" fill="none" xmlns="http://www.w3.org/2000/svg">
<path d="M34 0C34.8284 0 35.5 0.671573 35.5 1.5V7.5H39L39.3086 7.50781C42.4789 7.66843 45 10.2898 45 13.5V46.5L44.9922 46.8086C44.8367 49.8767 42.3767 52.3367 39.3086 52.4922L39 52.5H6L5.69141 52.4922C2.62332 52.3367 0.163251 49.8767 0.0078125 46.8086L0 46.5V13.5C0 10.2898 2.52111 7.66843 5.69141 7.50781L6 7.5H10V1.5C10 0.671573 10.6716 0 11.5 0C12.3284 0 13 0.671573 13 1.5V7.5H32.5V1.5C32.5 0.671573 33.1716 0 34 0ZM3 46.5C3 48.1569 4.34315 49.5 6 49.5H39C40.6569 49.5 42 48.1569 42 46.5V20.5H3V46.5ZM6 10.5C4.34315 10.5 3 11.8431 3 13.5V17.5H42V13.5C42 11.8431 40.6569 10.5 39 10.5H6Z" fill="#666666"/>
</svg>
