<svg width="71" height="61" viewBox="0 0 71 61" fill="none" xmlns="http://www.w3.org/2000/svg">
<path d="M39.4238 1.39441C40.2552 0.578263 41.5595 0.53845 42.4365 1.26746L42.6055 1.42371L68.4531 27.7499H68.5V27.7977L69.6055 28.9237L69.7568 29.0936C70.4146 29.9134 70.4145 31.0863 69.7568 31.9061L69.6055 32.076L42.6055 59.576C41.7349 60.4627 40.3105 60.4759 39.4238 59.6053C38.5372 58.7348 38.524 57.3104 39.3945 56.4237L63.1289 32.2499H3C1.75736 32.2499 0.75 31.2425 0.75 29.9999C0.750055 28.7573 1.75739 27.7499 3 27.7499H62.1465L39.3945 4.57605L39.2412 4.40417C38.5286 3.51386 38.5926 2.21055 39.4238 1.39441Z" fill="black"/>
</svg>
