<svg width="16" height="17" viewBox="0 0 16 17" fill="none" xmlns="http://www.w3.org/2000/svg">
<path d="M0.210938 8.46094C0.0351562 8.32031 0.0351562 8.03906 0.210938 7.86328L7.55859 0.515625C7.73438 0.339844 7.98047 0.339844 8.15625 0.515625L15.5039 7.86328C15.6797 8.03906 15.6797 8.32031 15.5039 8.46094L14.8359 9.16406C14.6602 9.33984 14.3789 9.33984 14.2383 9.16406L8.78906 3.71484V15.7031C8.78906 15.9492 8.57812 16.125 8.36719 16.125H7.38281C7.13672 16.125 6.96094 15.9492 6.96094 15.7031V3.71484L1.47656 9.16406C1.33594 9.33984 1.05469 9.33984 0.878906 9.16406L0.210938 8.46094Z" fill="white"/>
</svg>
