<svg width="72" height="72" viewBox="0 0 72 72" fill="none" xmlns="http://www.w3.org/2000/svg">
<path d="M36 0C55.8823 0 72 16.1177 72 36C72 55.8823 55.8823 72 36 72C16.1177 72 0 55.8823 0 36C2.89917e-07 16.1177 16.1177 2.89935e-07 36 0ZM36 4.0752C18.3686 4.0752 4.0752 18.3686 4.0752 36C4.0752 53.6314 18.3686 67.9248 36 67.9248C53.6314 67.9248 67.9248 53.6314 67.9248 36C67.9248 18.3686 53.6314 4.0752 36 4.0752ZM44.8408 26.8818C45.3059 26.5027 46.0479 26.4535 46.5127 26.958L47.8975 28.2949L47.9277 28.3242L47.9561 28.3584C48.1588 28.6119 48.248 28.923 48.248 29.208C48.2478 29.4879 48.1589 29.8216 47.9053 30.0752L33.5771 44.4033C33.3428 44.6375 33.0314 44.7812 32.6914 44.7812C32.3519 44.7812 32.0409 44.6379 31.8066 44.4043L25.4062 38.0527L25.3799 38.0254L25.3545 37.9951C25.1521 37.7419 25.0636 37.4322 25.0635 37.1475C25.0635 36.8673 25.1514 36.5322 25.4053 36.2783L26.79 34.8936L26.8887 34.8057C27.1266 34.6186 27.4141 34.5518 27.6592 34.5518C27.9083 34.5519 28.1765 34.6197 28.4092 34.7725L28.5068 34.8428L28.5381 34.8682L28.5654 34.8965L32.6689 39.043L44.748 26.9658L44.8408 26.8818ZM47.4873 29.5146C47.4694 29.5439 47.4487 29.5708 47.4248 29.5947L33.0967 43.9229C32.9774 44.042 32.8345 44.1015 32.6914 44.1016C32.8347 44.1015 32.9783 44.0422 33.0977 43.9229L47.4248 29.5947C47.4726 29.547 47.5083 29.4873 47.5322 29.4209L47.4873 29.5146ZM27.6582 35.2305C27.8075 35.2304 27.9626 35.2785 28.082 35.374L32.667 40.0068L28.083 35.374C27.9635 35.2784 27.8076 35.2304 27.6582 35.2305ZM47.4873 28.8789C47.5051 28.9124 47.5203 28.9474 47.5322 28.9834L47.4883 28.8789C47.4703 28.8451 47.4488 28.8132 47.4248 28.7832L47.4873 28.8789ZM45.6514 27.2666C45.7262 27.2665 45.7996 27.2815 45.8662 27.3115L45.7627 27.2783C45.7264 27.2707 45.6891 27.2666 45.6514 27.2666Z" fill="#338C00"/>
</svg>
