<svg width="50" height="50" viewBox="0 0 50 50" fill="none" xmlns="http://www.w3.org/2000/svg">
<path d="M47 25C47 12.8497 37.1503 3 25 3C12.8497 3 3 12.8497 3 25C3 37.1503 12.8497 47 25 47V50C11.1929 50 0 38.8071 0 25C0 11.1929 11.1929 0 25 0C38.8071 0 50 11.1929 50 25C50 38.8071 38.8071 50 25 50V47C37.1503 47 47 37.1503 47 25Z" fill="#666666"/>
<path d="M23 9.5C23 8.67157 23.6716 8 24.5 8C25.3284 8 26 8.67157 26 9.5V24.2275L35.8721 31.2793L35.9922 31.375C36.563 31.8772 36.6721 32.7401 36.2207 33.3721C35.7694 34.0039 34.9179 34.1805 34.2578 33.8037L34.1279 33.7207L23 25.7715V9.5Z" fill="#666666"/>
</svg>
