<svg width="32" height="26" viewBox="0 0 32 26" fill="none" xmlns="http://www.w3.org/2000/svg">
<path d="M30.6667 0.13281L30.7354 0.134437C31.4398 0.170181 32 0.752798 32 1.46614C32 2.17949 31.4398 2.7621 30.7354 2.79785L30.6667 2.79948L1.33333 2.79948C0.596954 2.79948 1.8094e-07 2.20253 1.16564e-07 1.46615C5.21873e-08 0.729766 0.596954 0.132812 1.33333 0.132812L30.6667 0.13281Z" fill="white"/>
<path d="M30.6667 11.1328L30.7354 11.1344C31.4398 11.1702 32 11.7528 32 12.4661C32 13.1795 31.4398 13.7621 30.7354 13.7978L30.6667 13.7995L1.33333 13.7995C0.596954 13.7995 1.8094e-07 13.2025 1.16564e-07 12.4661C5.21873e-08 11.7298 0.596954 11.1328 1.33333 11.1328L30.6667 11.1328Z" fill="white"/>
<path d="M30.6667 22.4661L30.7354 22.4677C31.4398 22.5034 32 23.086 32 23.7994C32 24.5127 31.4398 25.0954 30.7354 25.1311L30.6667 25.1327L1.33333 25.1327C0.596954 25.1327 1.8094e-07 24.5358 1.16564e-07 23.7994C5.21873e-08 23.063 0.596954 22.4661 1.33333 22.4661L30.6667 22.4661Z" fill="white"/>
</svg>
