<svg width="19" height="19" viewBox="0 0 19 19" fill="none" xmlns="http://www.w3.org/2000/svg">
<path d="M2.26172 17.8594C2.08594 18.0352 1.80469 18.0352 1.66406 17.8594L0.855468 17.0508C0.679687 16.9102 0.679687 16.6289 0.855468 16.4531L5.10937 12.1992C5.21484 12.1289 5.32031 12.0937 5.42578 12.0937L5.88281 12.0937C4.79297 10.793 4.125 9.14062 4.125 7.3125C4.125 3.26953 7.39453 -5.07291e-07 11.4375 -3.30567e-07C15.4453 -1.5538e-07 18.75 3.26953 18.75 7.3125C18.75 11.3203 15.4453 14.625 11.4375 14.625C9.60937 14.625 7.92187 13.9219 6.65625 12.832L6.65625 13.2891C6.65625 13.3945 6.58594 13.5 6.51562 13.6055L2.26172 17.8594ZM5.8125 7.3125C5.8125 10.4062 8.30859 12.9375 11.4375 12.9375C14.5312 12.9375 17.0625 10.4062 17.0625 7.3125C17.0625 4.18359 14.5312 1.6875 11.4375 1.6875C8.30859 1.6875 5.8125 4.18359 5.8125 7.3125Z" fill="black"/>
</svg>
