<svg width="19" height="19" viewBox="0 0 19 19" fill="none" xmlns="http://www.w3.org/2000/svg">
<path d="M18.5508 17.2383C18.7266 17.4141 18.7266 17.6953 18.5508 17.8359L17.7422 18.6445C17.6016 18.8203 17.3203 18.8203 17.1445 18.6445L12.8906 14.3906C12.8203 14.2852 12.7852 14.1797 12.7852 14.0742V13.6172C11.4844 14.707 9.83203 15.375 8.00391 15.375C3.96094 15.375 0.691406 12.1055 0.691406 8.0625C0.691406 4.05469 3.96094 0.75 8.00391 0.75C12.0117 0.75 15.3164 4.05469 15.3164 8.0625C15.3164 9.89062 14.6133 11.5781 13.5234 12.8438H13.9805C14.0859 12.8438 14.1914 12.9141 14.2969 12.9844L18.5508 17.2383ZM8.00391 13.6875C11.0977 13.6875 13.6289 11.1914 13.6289 8.0625C13.6289 4.96875 11.0977 2.4375 8.00391 2.4375C4.875 2.4375 2.37891 4.96875 2.37891 8.0625C2.37891 11.1914 4.875 13.6875 8.00391 13.6875Z" fill="black"/>
</svg>
