<svg width="31" height="31" viewBox="0 0 31 31" fill="none" xmlns="http://www.w3.org/2000/svg">
<path d="M27.4229 1.1923L27.4858 1.13233C28.1477 0.534346 29.1697 0.554403 29.8075 1.1923C30.4454 1.83019 30.4655 2.85211 29.8675 3.51402L29.8075 3.5769L3.57691 29.8075C2.91842 30.466 1.85079 30.466 1.1923 29.8075C0.533812 29.149 0.533812 28.0814 1.1923 27.4229L27.4229 1.1923Z" fill="white"/>
<path d="M29.8077 27.4229L29.8677 27.4858C30.4657 28.1477 30.4456 29.1697 29.8077 29.8075C29.1698 30.4454 28.1479 30.4655 27.486 29.8675L27.4231 29.8075L1.19246 3.57691C0.533974 2.91842 0.533974 1.85079 1.19246 1.1923C1.85095 0.533812 2.91858 0.533812 3.57707 1.1923L29.8077 27.4229Z" fill="white"/>
</svg>
