<svg width="66" height="66" viewBox="0 0 66 66" fill="none" xmlns="http://www.w3.org/2000/svg">
<path d="M39.1875 6.1875C39.1875 9.66797 36.3516 12.375 33 12.375C29.5195 12.375 26.8125 9.66797 26.8125 6.1875C26.8125 2.83594 29.5195 0 33 0C36.3516 0 39.1875 2.83594 39.1875 6.1875ZM33 53.625C36.3516 53.625 39.1875 56.4609 39.1875 59.8125C39.1875 63.293 36.3516 66 33 66C29.5195 66 26.8125 63.293 26.8125 59.8125C26.8125 56.4609 29.5195 53.625 33 53.625ZM59.8125 26.8125C63.1641 26.8125 66 29.6484 66 33C66 36.4805 63.1641 39.1875 59.8125 39.1875C56.332 39.1875 53.625 36.4805 53.625 33C53.625 29.6484 56.332 26.8125 59.8125 26.8125ZM12.375 33C12.375 36.4805 9.53906 39.1875 6.1875 39.1875C2.70703 39.1875 0 36.4805 0 33C0 29.6484 2.70703 26.8125 6.1875 26.8125C9.53906 26.8125 12.375 29.6484 12.375 33ZM13.9219 45.8906C17.4023 45.8906 20.1094 48.5977 20.1094 52.0781C20.1094 55.4297 17.4023 58.2656 13.9219 58.2656C10.5703 58.2656 7.73438 55.4297 7.73438 52.0781C7.73438 48.5977 10.5703 45.8906 13.9219 45.8906ZM51.9492 45.8906C55.3008 45.8906 58.1367 48.5977 58.1367 52.0781C58.1367 55.4297 55.3008 58.2656 51.9492 58.2656C48.4688 58.2656 45.7617 55.4297 45.7617 52.0781C45.7617 48.5977 48.4688 45.8906 51.9492 45.8906ZM13.9219 7.86328C17.4023 7.86328 20.1094 10.6992 20.1094 14.0508C20.1094 17.5313 17.4023 20.2383 13.9219 20.2383C10.5703 20.2383 7.73438 17.5313 7.73438 14.0508C7.73438 10.6992 10.5703 7.86328 13.9219 7.86328Z" fill="url(#paint0_linear_103_419)"/>
<defs>
<linearGradient id="paint0_linear_103_419" x1="33" y1="1.32188e-06" x2="77.3548" y2="33.3548" gradientUnits="userSpaceOnUse">
<stop stop-color="#E2655E"/>
<stop offset="1" stop-color="#F8C2BF"/>
</linearGradient>
</defs>
</svg>
